<svg width="83" height="22" viewBox="0 0 83 22" fill="none" xmlns="http://www.w3.org/2000/svg">
<g clip-path="url(#clip0_8272_32821)">
<path d="M1.47411 11.3065C1.4733 11.3707 1.47249 11.4349 1.47168 11.4992C1.47244 11.4362 1.4733 11.3732 1.47411 11.3102V11.3065Z" fill="#FEFEFD"/>
<path d="M14.8574 1.88811C15.1313 1.87355 15.4264 1.85832 15.6738 1.9135C15.8131 1.94456 15.9057 1.99561 15.9853 2.1176C16.0366 2.39756 16.0822 2.67456 16.0927 2.9594C16.1152 3.56327 16.1102 4.17165 16.1045 4.77874C16.1018 5.05408 16.0986 5.32961 16.0986 5.60393V10.8344C16.0988 11.0061 16.1032 11.295 16.1094 11.6469C16.1306 12.8791 16.1655 14.8827 16.0547 15.3246C15.9752 15.6411 15.8134 15.787 15.539 15.9487C15.294 15.9798 15.0384 15.986 14.7851 15.9916C14.6526 15.9946 14.5203 15.9968 14.3906 16.0033C13.1693 16.0654 11.8796 16.1909 10.7578 16.7094C10.4575 16.8482 10.1565 17.0115 9.89255 17.2123C9.75725 17.3153 9.60543 17.4583 9.44431 17.6108C9.04261 17.9911 8.57843 18.4301 8.1406 18.4545C7.63585 18.4823 7.15742 18.0502 6.7158 17.6518C6.50573 17.4623 6.3034 17.2809 6.1113 17.1596C5.64531 16.8654 5.11828 16.6383 4.59568 16.4672C3.73364 16.1853 2.8203 16.0405 1.91599 15.9867C1.77945 15.9785 1.63846 15.9794 1.49705 15.9799C1.2347 15.9808 0.969066 15.9818 0.721655 15.9272C0.506148 15.8793 0.367093 15.7699 0.205053 15.6264C0.086388 15.3445 0.0497429 14.9958 0.0351315 14.6918C0.00898091 14.1483 0.0156123 13.5982 0.0224362 13.0502C0.0254892 12.8072 0.0281498 12.5643 0.0282956 12.3227L0.0322019 7.69671L0.0282956 4.19573C0.0281921 4.04303 0.0213463 3.87709 0.0146237 3.7055C-0.00350842 3.2405 -0.0230566 2.73384 0.0781003 2.33733C0.13374 2.11945 0.259948 2.02306 0.442358 1.90667C2.44915 1.77657 4.64101 2.19328 6.40427 3.17425C6.98996 3.50007 7.51748 3.89914 8.05076 4.30218C8.35053 4.07862 8.65309 3.85498 8.96189 3.64397C10.6218 2.50971 12.5984 1.94973 14.6006 1.89983C14.6823 1.89779 14.7689 1.89281 14.8574 1.88811ZM14.626 3.4594C14.3829 3.46141 14.1254 3.44602 13.8847 3.47796C12.2376 3.62687 10.1243 4.22943 9.00583 5.54143C8.95847 5.59749 8.91321 5.65559 8.86912 5.71428L8.86619 16.0151C9.04906 15.8821 9.23023 15.7447 9.41599 15.6157C10.9548 14.6964 12.8799 14.5386 14.6338 14.4125C14.6339 10.7638 14.6824 7.10745 14.626 3.4594ZM1.50095 3.46135C1.4632 4.98557 1.4715 6.51595 1.47947 8.04339C1.48276 8.66946 1.48621 9.29526 1.4863 9.92034C1.4864 10.3797 1.48045 10.8425 1.47458 11.3061V11.31C1.46165 12.336 1.44891 13.3679 1.49998 14.3823C3.52641 14.5567 5.56099 14.7568 7.249 15.9955C7.23902 12.577 7.25777 9.15869 7.30564 5.74065C5.97861 4.33972 3.90215 3.51218 1.98728 3.45843C1.82524 3.45496 1.66289 3.45608 1.50095 3.46135Z" fill="#010101"/>
<path d="M14.8574 1.88811L14.8704 2.13213L14.8704 2.13212L14.8574 1.88811ZM15.6738 1.9135L15.6206 2.152L15.6206 2.15201L15.6738 1.9135ZM15.9853 2.1176L16.2257 2.0736L16.2168 2.02521L16.1899 1.98401L15.9853 2.1176ZM16.0927 2.9594L15.8486 2.96845L15.8486 2.96849L16.0927 2.9594ZM16.1045 4.77874L16.3488 4.78107V4.78106L16.1045 4.77874ZM16.0986 10.8344H15.8543V10.8347L16.0986 10.8344ZM16.1094 11.6469L16.3537 11.6427V11.6427L16.1094 11.6469ZM16.0547 15.3246L16.2917 15.3842L16.2917 15.3841L16.0547 15.3246ZM15.539 15.9487L15.5698 16.1911L15.6197 16.1847L15.6631 16.1592L15.539 15.9487ZM14.7851 15.9916L14.7797 15.7473H14.7797L14.7851 15.9916ZM14.3906 16.0033L14.3783 15.7593L14.3782 15.7593L14.3906 16.0033ZM10.7578 16.7094L10.8603 16.9312L10.8603 16.9312L10.7578 16.7094ZM9.89255 17.2123L10.0405 17.4068L10.0405 17.4068L9.89255 17.2123ZM9.44431 17.6108L9.27633 17.4333L9.27632 17.4333L9.44431 17.6108ZM8.1406 18.4545L8.15405 18.6985L8.15422 18.6985L8.1406 18.4545ZM6.7158 17.6518L6.87949 17.4704L6.87947 17.4703L6.7158 17.6518ZM6.1113 17.1596L6.24179 16.953L6.24175 16.953L6.1113 17.1596ZM4.59568 16.4672L4.67169 16.235L4.67163 16.235L4.59568 16.4672ZM1.91599 15.9867L1.90132 16.2307L1.90149 16.2307L1.91599 15.9867ZM1.49705 15.9799L1.49622 15.7356H1.49622L1.49705 15.9799ZM0.721655 15.9272L0.668615 16.1657L0.66899 16.1658L0.721655 15.9272ZM0.205053 15.6264L-0.0201648 15.7212L0.00141085 15.7725L0.0430446 15.8093L0.205053 15.6264ZM0.0351315 14.6918L0.279206 14.6801L0.279206 14.6801L0.0351315 14.6918ZM0.0224362 13.0502L-0.221901 13.0472L-0.221901 13.0472L0.0224362 13.0502ZM0.0282956 12.3227L-0.216061 12.3225L-0.216061 12.3225L0.0282956 12.3227ZM0.0322019 7.69671L0.276559 7.69691L0.276558 7.69643L0.0322019 7.69671ZM0.0282956 4.19573L-0.216061 4.1959L-0.216061 4.196L0.0282956 4.19573ZM0.0146237 3.7055L-0.229547 3.71502L-0.229545 3.71506L0.0146237 3.7055ZM0.0781003 2.33733L-0.158658 2.27687L-0.158672 2.27693L0.0781003 2.33733ZM0.442358 1.90667L0.426551 1.66282L0.36387 1.66689L0.310919 1.70067L0.442358 1.90667ZM6.40427 3.17425L6.28548 3.38778L6.28548 3.38778L6.40427 3.17425ZM8.05076 4.30218L7.90342 4.49712L8.04978 4.60773L8.19684 4.49806L8.05076 4.30218ZM8.96189 3.64397L9.09975 3.84573L9.09975 3.84572L8.96189 3.64397ZM14.6006 1.89983L14.6066 2.14411L14.6067 2.14411L14.6006 1.89983ZM14.626 3.4594L14.8703 3.45562L14.8665 3.21305L14.6239 3.21505L14.626 3.4594ZM13.8847 3.47796L13.9068 3.72153L13.9169 3.72019L13.8847 3.47796ZM9.00583 5.54143L8.81988 5.38291L8.81918 5.38373L9.00583 5.54143ZM8.86912 5.71428L8.67375 5.56751L8.62478 5.63269L8.62476 5.71422L8.86912 5.71428ZM8.86619 16.0151L8.62183 16.015L8.62169 16.4949L9.00986 16.2127L8.86619 16.0151ZM9.41599 15.6157L9.29068 15.4059L9.28348 15.4102L9.2766 15.415L9.41599 15.6157ZM14.6338 14.4125L14.6513 14.6563L14.8781 14.6399L14.8781 14.4125L14.6338 14.4125ZM1.50095 3.46135L1.49299 3.21713L1.26238 3.22464L1.25667 3.4553L1.50095 3.46135ZM1.47947 8.04339L1.23511 8.04466V8.04467L1.47947 8.04339ZM1.4863 9.92034L1.24195 9.92038V9.92039L1.4863 9.92034ZM1.47458 11.3061L1.23023 11.303V11.3061H1.47458ZM1.47458 11.31L1.71894 11.3131V11.31H1.47458ZM1.49998 14.3823L1.25593 14.3945L1.26665 14.6074L1.47902 14.6257L1.49998 14.3823ZM7.249 15.9955L7.10443 16.1925L7.49477 16.479L7.49335 15.9948L7.249 15.9955ZM7.30564 5.74065L7.54997 5.74407L7.55136 5.64474L7.48304 5.57261L7.30564 5.74065ZM1.98728 3.45843L1.99414 3.21416L1.99251 3.21412L1.98728 3.45843ZM14.8574 1.88811L14.8704 2.13212C15.1529 2.11711 15.4122 2.10552 15.6206 2.152L15.6738 1.9135L15.727 1.67501C15.4405 1.61112 15.1097 1.63 14.8444 1.6441L14.8574 1.88811ZM15.6738 1.9135L15.6206 2.15201C15.6745 2.164 15.703 2.1764 15.7215 2.18807C15.738 2.19848 15.7571 2.21496 15.7807 2.2512L15.9853 2.1176L16.1899 1.98401C16.1339 1.89826 16.0669 1.82821 15.9824 1.77484C15.8999 1.72272 15.8125 1.69406 15.727 1.675L15.6738 1.9135ZM15.9853 2.1176L15.745 2.16161C15.796 2.44027 15.8387 2.70248 15.8486 2.96845L16.0927 2.9594L16.3369 2.95035C16.3257 2.64665 16.2772 2.35485 16.2257 2.0736L15.9853 2.1176ZM16.0927 2.9594L15.8486 2.96849C15.8708 3.56581 15.8659 4.16866 15.8601 4.77641L16.1045 4.77874L16.3488 4.78106C16.3546 4.17463 16.3597 3.56074 16.3369 2.95031L16.0927 2.9594ZM16.1045 4.77874L15.8601 4.77641C15.8575 5.05097 15.8543 5.32811 15.8543 5.60393H16.0986H16.343C16.343 5.33111 16.3462 5.05719 16.3488 4.78107L16.1045 4.77874ZM16.0986 5.60393H15.8543V10.8344H16.0986H16.343V5.60393H16.0986ZM16.0986 10.8344L15.8543 10.8347C15.8544 11.0087 15.8589 11.2998 15.865 11.6511L16.1094 11.6469L16.3537 11.6427C16.3476 11.2902 16.3432 11.0034 16.343 10.8341L16.0986 10.8344ZM16.1094 11.6469L15.865 11.6511C15.8757 12.2677 15.8897 13.0741 15.8872 13.7813C15.886 14.135 15.8806 14.4616 15.8689 14.726C15.8567 14.9986 15.8384 15.1824 15.8177 15.2652L16.0547 15.3246L16.2917 15.3841C16.3263 15.2459 16.3453 15.0135 16.3571 14.7477C16.3693 14.4736 16.3747 14.1394 16.3759 13.783C16.3784 13.0698 16.3643 12.2582 16.3537 11.6427L16.1094 11.6469ZM16.0547 15.3246L15.8177 15.2651C15.786 15.3912 15.7419 15.4703 15.6865 15.5333C15.6274 15.6004 15.5448 15.6616 15.415 15.7381L15.539 15.9487L15.6631 16.1592C15.8076 16.0741 15.943 15.9815 16.0534 15.8561C16.1673 15.7267 16.2438 15.5746 16.2917 15.3842L16.0547 15.3246ZM15.539 15.9487L15.5083 15.7062C15.2779 15.7355 15.0348 15.7417 14.7797 15.7473L14.7851 15.9916L14.7905 16.2359C15.0419 16.2304 15.3101 16.224 15.5698 16.1911L15.539 15.9487ZM14.7851 15.9916L14.7797 15.7473C14.6491 15.7502 14.5124 15.7525 14.3783 15.7593L14.3906 16.0033L14.4029 16.2474C14.5282 16.2411 14.656 16.2389 14.7905 16.2359L14.7851 15.9916ZM14.3906 16.0033L14.3782 15.7593C13.1551 15.8215 11.8235 15.9477 10.6553 16.4876L10.7578 16.7094L10.8603 16.9312C11.9356 16.4342 13.1835 16.3094 14.403 16.2474L14.3906 16.0033ZM10.7578 16.7094L10.6553 16.4876C10.3463 16.6304 10.0279 16.8023 9.74457 17.0179L9.89255 17.2123L10.0405 17.4068C10.285 17.2207 10.5687 17.066 10.8603 16.9312L10.7578 16.7094ZM9.89255 17.2123L9.7446 17.0179C9.59671 17.1304 9.43476 17.2833 9.27633 17.4333L9.44431 17.6108L9.61229 17.7882C9.77611 17.6332 9.91779 17.5002 10.0405 17.4068L9.89255 17.2123ZM9.44431 17.6108L9.27632 17.4333C9.07302 17.6258 8.86825 17.819 8.6625 17.9683C8.45302 18.1203 8.27461 18.2023 8.12698 18.2105L8.1406 18.4545L8.15422 18.6985C8.44442 18.6823 8.71701 18.5326 8.94951 18.3639C9.18573 18.1925 9.4139 17.9761 9.61231 17.7882L9.44431 17.6108ZM8.1406 18.4545L8.12715 18.2105C7.9493 18.2203 7.75616 18.1499 7.53752 18.008C7.31893 17.8662 7.1036 17.6726 6.87949 17.4704L6.7158 17.6518L6.5521 17.8332C6.76962 18.0295 7.01431 18.2511 7.27152 18.418C7.52869 18.5848 7.82714 18.7165 8.15405 18.6985L8.1406 18.4545ZM6.7158 17.6518L6.87947 17.4703C6.6736 17.2846 6.45506 17.0877 6.24179 16.953L6.1113 17.1596L5.98081 17.3662C6.15174 17.4742 6.33786 17.6399 6.55212 17.8332L6.7158 17.6518ZM6.1113 17.1596L6.24175 16.953C5.7544 16.6453 5.20784 16.4105 4.67169 16.235L4.59568 16.4672L4.51967 16.6994C5.02871 16.8661 5.53622 17.0855 5.98085 17.3662L6.1113 17.1596ZM4.59568 16.4672L4.67163 16.235C3.78516 15.9451 2.85034 15.7975 1.93049 15.7428L1.91599 15.9867L1.90149 16.2307C2.79026 16.2835 3.68211 16.4255 4.51973 16.6995L4.59568 16.4672ZM1.91599 15.9867L1.93067 15.7428C1.7848 15.7341 1.63539 15.7351 1.49622 15.7356L1.49705 15.9799L1.49787 16.2243C1.64152 16.2238 1.7741 16.223 1.90132 16.2307L1.91599 15.9867ZM1.49705 15.9799L1.49622 15.7356C1.22825 15.7365 0.990585 15.7363 0.77432 15.6886L0.721655 15.9272L0.66899 16.1658C0.947547 16.2273 1.24115 16.2251 1.49787 16.2243L1.49705 15.9799ZM0.721655 15.9272L0.774695 15.6886C0.623413 15.655 0.523713 15.5822 0.367062 15.4435L0.205053 15.6264L0.0430446 15.8093C0.210473 15.9576 0.388884 16.1035 0.668615 16.1657L0.721655 15.9272ZM0.205053 15.6264L0.430272 15.5316C0.3294 15.292 0.293635 14.9802 0.279206 14.6801L0.0351315 14.6918L-0.208943 14.7036C-0.19415 15.0113 -0.156624 15.397 -0.0201648 15.7212L0.205053 15.6264ZM0.0351315 14.6918L0.279206 14.6801C0.253469 14.1451 0.259935 13.6024 0.266774 13.0533L0.0224362 13.0502L-0.221901 13.0472C-0.22871 13.5939 -0.235507 14.1514 -0.208943 14.7036L0.0351315 14.6918ZM0.0224362 13.0502L0.266773 13.0533C0.269828 12.8101 0.272505 12.566 0.272652 12.3228L0.0282956 12.3227L-0.216061 12.3225C-0.216206 12.5626 -0.218849 12.8042 -0.221901 13.0472L0.0224362 13.0502ZM0.0282956 12.3227L0.272652 12.3229L0.276558 7.69691L0.0322019 7.69671L-0.212154 7.6965L-0.216061 12.3225L0.0282956 12.3227ZM0.0322019 7.69671L0.276558 7.69643L0.272652 4.19546L0.0282956 4.19573L-0.216061 4.196L-0.212154 7.69698L0.0322019 7.69671ZM0.0282956 4.19573L0.272652 4.19556C0.272545 4.03713 0.265451 3.86588 0.258793 3.69593L0.0146237 3.7055L-0.229545 3.71506C-0.222758 3.88831 -0.21616 4.04894 -0.216061 4.1959L0.0282956 4.19573ZM0.0146237 3.7055L0.258795 3.69597C0.240234 3.21998 0.224325 2.75266 0.314873 2.39774L0.0781003 2.33733L-0.158672 2.27693C-0.270438 2.71502 -0.24725 3.26102 -0.229547 3.71502L0.0146237 3.7055ZM0.0781003 2.33733L0.314859 2.39779C0.346166 2.2752 0.401812 2.2224 0.573797 2.11266L0.442358 1.90667L0.310919 1.70067C0.118083 1.82372 -0.0786855 1.9637 -0.158658 2.27687L0.0781003 2.33733ZM0.442358 1.90667L0.458166 2.15051C2.42432 2.02305 4.56835 2.43249 6.28548 3.38778L6.40427 3.17425L6.52307 2.96071C4.71366 1.95408 2.47398 1.5301 0.426551 1.66282L0.442358 1.90667ZM6.40427 3.17425L6.28548 3.38778C6.85376 3.70392 7.36785 4.09235 7.90342 4.49712L8.05076 4.30218L8.19809 4.10723C7.6671 3.70593 7.12615 3.29621 6.52306 2.96071L6.40427 3.17425ZM8.05076 4.30218L8.19684 4.49806C8.4965 4.27459 8.79551 4.05362 9.09975 3.84573L8.96189 3.64397L8.82403 3.44222C8.51068 3.65633 8.20457 3.88265 7.90468 4.10629L8.05076 4.30218ZM8.96189 3.64397L9.09975 3.84572C10.7158 2.74146 12.6451 2.193 14.6066 2.14411L14.6006 1.89983L14.5945 1.65555C12.5516 1.70646 10.5278 2.27796 8.82403 3.44222L8.96189 3.64397ZM14.6006 1.89983L14.6067 2.14411C14.6927 2.14196 14.7838 2.13673 14.8704 2.13213L14.8574 1.88811L14.8444 1.6441C14.7541 1.6489 14.6718 1.65362 14.5945 1.65555L14.6006 1.89983ZM14.626 3.4594L14.6239 3.21505C14.4044 3.21686 14.1132 3.20114 13.8526 3.23572L13.8847 3.47796L13.9169 3.72019C14.1376 3.69089 14.3613 3.70595 14.628 3.70375L14.626 3.4594ZM13.8847 3.47796L13.8627 3.23459C13.0209 3.3107 12.0583 3.50269 11.16 3.84521C10.2636 4.18701 9.4149 4.68492 8.81988 5.38291L9.00583 5.54143L9.19179 5.69996C9.71523 5.08594 10.4825 4.62657 11.3341 4.30186C12.1838 3.97788 13.1015 3.79412 13.9067 3.72132L13.8847 3.47796ZM9.00583 5.54143L8.81918 5.38373C8.76776 5.4446 8.71945 5.50668 8.67375 5.56751L8.86912 5.71428L9.06448 5.86105C9.10697 5.80451 9.14919 5.75038 9.19249 5.69913L9.00583 5.54143ZM8.86912 5.71428L8.62476 5.71422L8.62183 16.015L8.86619 16.0151L9.11054 16.0151L9.11347 5.71435L8.86912 5.71428ZM8.86619 16.0151L9.00986 16.2127C9.19847 16.0756 9.3722 15.9436 9.55539 15.8163L9.41599 15.6157L9.2766 15.415C9.08827 15.5458 8.89965 15.6887 8.72251 15.8174L8.86619 16.0151ZM9.41599 15.6157L9.54131 15.8254C11.0221 14.9409 12.887 14.7831 14.6513 14.6563L14.6338 14.4125L14.6162 14.1688C12.8728 14.2941 10.8875 14.4519 9.29068 15.4059L9.41599 15.6157ZM14.6338 14.4125L14.8781 14.4125C14.8782 10.7683 14.9268 7.10603 14.8703 3.45562L14.626 3.4594L14.3816 3.46319C14.4381 7.10886 14.3895 10.7593 14.3894 14.4125L14.6338 14.4125ZM1.50095 3.46135L1.25667 3.4553C1.21881 4.98381 1.22715 6.51789 1.23511 8.04466L1.47947 8.04339L1.72382 8.04211C1.71585 6.51401 1.70759 4.98733 1.74523 3.46741L1.50095 3.46135ZM1.47947 8.04339L1.23511 8.04467C1.23841 8.67091 1.24185 9.29605 1.24195 9.92038L1.4863 9.92034L1.73066 9.9203C1.73056 9.29448 1.72711 8.66801 1.72382 8.0421L1.47947 8.04339ZM1.4863 9.92034L1.24195 9.92039C1.24204 10.3779 1.23612 10.8391 1.23025 11.303L1.47458 11.3061L1.71892 11.3092C1.72479 10.846 1.73076 10.3815 1.73066 9.92029L1.4863 9.92034ZM1.47458 11.3061H1.23023V11.31H1.47458H1.71894V11.3061H1.47458ZM1.47458 11.31L1.23025 11.3069C1.21733 12.3316 1.20441 13.3712 1.25593 14.3945L1.49998 14.3823L1.74402 14.37C1.69341 13.3646 1.70597 12.3404 1.71892 11.3131L1.47458 11.31ZM1.49998 14.3823L1.47902 14.6257C3.5149 14.801 5.47983 15.0003 7.10443 16.1925L7.249 15.9955L7.39357 15.7985C5.64215 14.5133 3.53792 14.3124 1.52094 14.1388L1.49998 14.3823ZM7.249 15.9955L7.49335 15.9948C7.48338 12.5777 7.50212 9.16072 7.54997 5.74407L7.30564 5.74065L7.06131 5.73723C7.01342 9.15665 6.99466 12.5764 7.00464 15.9962L7.249 15.9955ZM7.30564 5.74065L7.48304 5.57261C6.10627 4.11916 3.96567 3.26951 1.99414 3.21417L1.98728 3.45843L1.98042 3.70269C3.83862 3.75485 5.85096 4.56028 7.12824 5.9087L7.30564 5.74065ZM1.98728 3.45843L1.99251 3.21412C1.82587 3.21056 1.65911 3.21171 1.49299 3.21713L1.50095 3.46135L1.50891 3.70558C1.66667 3.70044 1.82462 3.69936 1.98205 3.70273L1.98728 3.45843Z" fill="#010101"/>
<path d="M22.3605 3.01277C24.3179 2.97875 27.6145 2.92115 28.7003 3.33699C29.5294 3.65466 30.2347 4.27966 30.5959 5.09675C30.9518 5.90229 30.9771 6.96805 30.6544 7.78816C30.3097 8.66382 29.6773 9.03395 28.8595 9.38679C28.9226 9.40979 28.9869 9.43205 29.0509 9.45417C29.2261 9.5147 29.4026 9.57595 29.5675 9.6573C30.3227 10.0367 30.8999 10.6963 31.175 11.4952C31.5073 12.475 31.3796 13.5726 30.9298 14.4903C30.5944 15.0682 30.1242 15.5155 29.5421 15.8409C29.03 16.1272 28.5235 16.2417 27.9455 16.3184C27.0668 16.4352 21.9695 16.512 21.3293 16.294C21.243 16.2647 21.1569 16.2318 21.1173 16.1466C21.023 15.9422 21.0101 15.6288 21.0002 15.3878L20.9972 15.3214C20.9358 13.9512 20.956 12.5626 20.9757 11.1798C20.9845 10.5647 20.9927 9.95062 20.9943 9.33992C20.9958 8.75148 20.9883 8.15892 20.9806 7.5655C20.9657 6.40853 20.9512 5.24716 21.0041 4.10261C21.0156 3.85454 21.0367 3.57786 21.1261 3.3448C21.1945 3.16685 21.2818 3.10545 21.4494 3.02644C21.695 3.02475 22.0058 3.01893 22.3605 3.01277ZM27.2541 10.4503C26.5406 10.2802 24.2885 10.398 23.4308 10.3985L23.4318 14.3087C24.4382 14.3107 26.6291 14.4377 27.4914 14.2169C27.8099 14.1353 28.0626 14.0074 28.3048 13.7852C28.6928 13.3278 28.8941 12.8663 28.8361 12.253C28.7844 11.7078 28.5514 11.244 28.1271 10.8936C27.8737 10.6815 27.5748 10.5299 27.2541 10.4503ZM24.1418 4.99617C23.8702 5.00492 23.6263 5.01246 23.4298 5.01277L23.4318 8.49324C23.6603 8.49388 23.9386 8.50108 24.2423 8.50886C25.2463 8.53456 26.5269 8.56756 27.1955 8.39656C27.5069 8.31685 27.7648 8.1909 28.0138 7.98835C28.3406 7.59254 28.5187 7.14052 28.4767 6.62019C28.4399 6.16271 28.2216 5.71503 27.8566 5.43171C27.1693 4.89853 25.3674 4.95662 24.1418 4.99617Z" fill="#010101"/>
<path d="M42.5544 10.7976C42.178 7.97251 39.5822 5.98785 36.7575 6.36548C33.9349 6.74286 31.9522 9.33612 32.3279 12.1587C32.7037 14.9815 35.2959 16.9657 38.1189 16.5918C40.944 16.217 42.9302 13.6224 42.5544 10.7976ZM37.0878 8.55076C37.6611 8.52222 38.1668 8.53204 38.6753 8.84189C39.246 9.18975 39.601 9.78403 39.7556 10.4224C39.9747 11.3274 39.9234 12.5736 39.4144 13.3785C39.0497 13.9552 38.5415 14.2103 37.8981 14.352C37.2807 14.4141 36.6681 14.3559 36.1391 14.0011C35.5813 13.6268 35.2565 13.0159 35.1303 12.3688C34.951 11.45 35.0073 10.2561 35.5624 9.46949C35.9434 8.92961 36.4512 8.66346 37.0878 8.55076Z" fill="#010101"/>
<path d="M53.6245 10.7664C53.2345 7.94204 50.6248 5.9716 47.8015 6.36965C44.9894 6.76615 43.0287 9.36312 43.4172 12.1763C43.8058 14.9888 46.3974 16.9574 49.2114 16.5767C52.0367 16.1945 54.0145 13.5906 53.6245 10.7664ZM48.1177 8.55136C48.6753 8.50552 49.2148 8.52282 49.7162 8.80373C50.3115 9.13718 50.6751 9.72256 50.8447 10.3689C51.0881 11.2976 51.0401 12.4954 50.5314 13.3326C50.1712 13.9259 49.6576 14.202 49.0008 14.3496C48.386 14.4293 47.7799 14.3608 47.2511 14.0134C46.6867 13.6424 46.3592 13.0384 46.2219 12.3899C46.0284 11.4735 46.091 10.2931 46.6256 9.49658C46.9882 8.95602 47.4931 8.68009 48.1177 8.55136Z" fill="#010101"/>
<path d="M55.6816 2.59563C55.7202 2.59201 55.7588 2.58922 55.7974 2.58786C56.1806 2.57442 57.0339 2.50018 57.2939 2.85098C57.4048 3.00042 57.4209 3.31267 57.4346 3.49691C57.4928 4.27523 57.4459 5.08933 57.4459 5.87098L57.4468 10.4736C57.9913 9.82652 58.6178 9.234 59.192 8.61148C59.7589 7.99663 60.3038 7.28956 60.9318 6.74191C61.0814 6.61147 61.1948 6.54237 61.3883 6.48959C61.7895 6.38036 63.243 6.29943 63.5489 6.51715C63.6271 6.57272 63.6936 6.68043 63.6877 6.77881C63.6603 7.21684 60.7662 10.0704 60.2618 10.5698C61.1899 11.9187 62.1258 13.2617 63.07 14.5993C63.305 14.9405 63.9731 15.6725 63.8871 16.0953C63.8685 16.1872 63.7957 16.2678 63.7146 16.3123C63.2806 16.5513 61.6136 16.3939 61.0931 16.2243C60.7212 15.8504 60.4182 15.3099 60.1191 14.8755L58.3079 12.2349L57.4424 12.9871C57.439 13.6796 57.6462 15.717 57.201 16.1813C57.0016 16.3895 56.7411 16.4056 56.4699 16.4081C56.0555 16.4125 55.254 16.4814 54.951 16.1852C54.8733 15.3876 54.8992 14.5803 54.8987 13.7798L54.8972 10.3612L54.8977 5.67706C54.8977 4.84458 54.8679 3.9997 54.9065 3.16845C54.9119 3.05663 54.9148 2.96011 54.9813 2.86447C55.1406 2.63394 55.4294 2.62988 55.6816 2.59563Z" fill="#010101"/>
<path d="M73.2885 6.39934C73.8349 6.38747 74.9228 6.26661 75.4144 6.47026C75.5987 6.54654 75.6823 6.73465 75.7648 6.90687C76.1148 7.63637 76.344 8.47686 76.6255 9.23867C77.1156 10.5642 77.6435 11.8752 78.1405 13.1977C78.4293 12.4514 80.4242 6.8906 80.7512 6.61321C80.9115 6.47744 81.2155 6.44827 81.4153 6.4424C81.8361 6.43009 82.622 6.33713 82.9406 6.63109C83.0212 6.82057 83.0105 6.92417 82.9641 7.12728C82.8008 7.83655 82.4534 8.57348 82.1987 9.25724L80.5621 13.6561L79.4556 16.6548C79.2332 17.2599 79.0373 17.9074 78.7489 18.4831C78.5881 18.8037 78.3927 19.1043 78.1473 19.3667C77.5594 19.9967 76.7902 20.2674 75.9432 20.2967C75.5801 20.3094 74.9575 20.3769 74.6775 20.1174C74.4986 19.7557 74.4834 18.9122 74.5988 18.5222C74.7112 18.1425 75.5425 18.2148 75.8777 18.0262C76.4173 17.7227 76.5644 17.125 76.7037 16.5693C76.2702 15.2591 73.0075 7.24692 73.0393 6.79383C73.053 6.59708 73.1458 6.51273 73.2885 6.39934Z" fill="#010101"/>
<path d="M67.9289 6.36073C68.2026 6.31899 68.5031 6.33038 68.7812 6.33321C69.8872 6.34426 71.1246 6.57737 71.9212 7.40931C72.2872 7.79178 72.5541 8.36958 72.514 8.90844C72.5072 9.00026 72.4817 9.13212 72.4035 9.18744C72.0062 9.46821 70.9218 9.41313 70.4497 9.34965C70.0308 9.2932 70.0631 9.01317 69.8051 8.70664C69.5206 8.36933 69.1047 8.20356 68.6717 8.17214C68.1899 8.13715 67.5804 8.29393 67.2217 8.63221C67.0634 8.78161 66.8962 9.16652 66.9221 9.38195C67.0336 10.3214 69.6804 10.4422 70.4423 10.634C71.0884 10.7967 71.7536 11.0386 72.2696 11.4735C72.7593 11.886 72.9807 12.448 73.0306 13.0765C73.0917 13.8511 72.8659 14.593 72.3517 15.1794C71.4584 16.1984 70.1569 16.498 68.8618 16.5928C67.8663 16.6265 66.7951 16.4902 65.8998 16.0303C65.2503 15.6965 64.6638 15.1751 64.4473 14.4557C64.3584 14.162 64.2992 13.8179 64.4556 13.5393C64.9082 13.1845 66.1446 13.3233 66.6939 13.3434C66.8791 13.6253 66.9925 13.9562 67.2457 14.1898C67.6723 14.5832 68.3018 14.702 68.8653 14.6741C69.3261 14.6512 69.8168 14.5202 70.1257 14.1541C70.2962 13.9523 70.3949 13.6933 70.3695 13.4269C70.2674 12.3615 67.643 12.3654 66.8308 12.1778C66.2443 12.0429 65.6461 11.8049 65.1711 11.4286C64.6706 11.0313 64.351 10.4969 64.2904 9.85649C64.223 9.07509 64.4639 8.29833 64.9619 7.69242C65.714 6.78087 66.7956 6.47147 67.9289 6.36073Z" fill="#010101"/>
</g>
<defs>
<clipPath id="clip0_8272_32821">
<rect width="83" height="21" fill="white" transform="translate(0 0.437988)"/>
</clipPath>
</defs>
</svg>
