<svg aria-hidden="true" style="position: absolute; width: 0; height: 0; overflow: hidden;" version="1.1" xmlns="http://www.w3.org/2000/svg" xmlns:xlink="http://www.w3.org/1999/xlink">
<defs>
<symbol id="icon-up-arrow-alt" viewBox="0 0 32 32">
<path d="M14.667 11.219v12.781h2.667v-12.781l5.724 5.724 1.885-1.885-8.943-8.943-8.943 8.943 1.885 1.885 5.724-5.724z"></path>
</symbol>
<symbol id="icon-star" viewBox="0 0 32 32">
<path d="M8.688 19.097l-1.987 8.603c-0.023 0.092-0.036 0.197-0.036 0.306 0 0.735 0.596 1.331 1.331 1.331 0.277 0 0.535-0.085 0.748-0.23l-0.005 0.003 7.26-4.84 7.26 4.84c0.208 0.14 0.463 0.223 0.738 0.223 0.737 0 1.335-0.598 1.335-1.335 0-0.129-0.018-0.254-0.053-0.372l0.002 0.009-2.439-8.533 6.048-5.443c0.271-0.245 0.441-0.598 0.441-0.991 0-0.699-0.538-1.273-1.223-1.329l-0.005-0-7.601-0.605-3.289-7.281c-0.212-0.469-0.676-0.789-1.215-0.789s-1.002 0.32-1.211 0.781l-0.003 0.008-3.289 7.281-7.601 0.604c-0.69 0.056-1.228 0.63-1.228 1.329 0 0.374 0.154 0.712 0.402 0.955l0 0 5.619 5.476zM12.492 13.329c0.495-0.040 0.91-0.346 1.106-0.773l0.003-0.008 2.399-5.308 2.399 5.308c0.199 0.435 0.614 0.741 1.105 0.781l0.005 0 5.296 0.42-4.361 3.925c-0.379 0.341-0.529 0.867-0.391 1.357l1.671 5.847-4.981-3.321c-0.208-0.141-0.464-0.225-0.739-0.225s-0.532 0.084-0.744 0.228l0.005-0.003-5.205 3.471 1.4-6.061c0.022-0.090 0.034-0.193 0.034-0.299 0-0.374-0.154-0.712-0.402-0.954l-0-0-4.051-3.949 5.453-0.435z"></path>
</symbol>
<symbol id="icon-right-arrow-alt" viewBox="0 0 32 32">
<path d="M15.057 23.057l1.885 1.885 8.943-8.943-8.943-8.943-1.885 1.885 5.724 5.724h-12.781v2.667h12.781l-5.724 5.724z"></path>
</symbol>
<symbol id="icon-plus" viewBox="0 0 32 32">
<path d="M25.333 14.667h-8v-8h-2.667v8h-8v2.667h8v8h2.667v-8h8v-2.667z"></path>
</symbol>
<symbol id="icon-phone" viewBox="0 0 32 32">
<path d="M23.609 16.391c-0.241-0.242-0.574-0.392-0.943-0.392s-0.702 0.15-0.943 0.391l-2.124 2.125c-0.985-0.293-2.824-0.96-3.989-2.125s-1.832-3.004-2.125-3.989l2.125-2.125c0.242-0.241 0.392-0.574 0.392-0.943s-0.15-0.702-0.391-0.943l-5.333-5.333c-0.241-0.242-0.574-0.391-0.943-0.391s-0.702 0.149-0.943 0.391l-3.617 3.616c-0.507 0.507-0.792 1.203-0.781 1.913 0.031 1.899 0.533 8.493 5.731 13.691s11.792 5.699 13.693 5.731h0.036c0.704 0 1.369-0.277 1.873-0.781l3.616-3.616c0.242-0.241 0.392-0.574 0.392-0.943s-0.15-0.702-0.391-0.943l-5.333-5.335zM23.44 25.34c-1.664-0.028-7.357-0.475-11.831-4.949-4.488-4.488-4.923-10.201-4.949-11.832l2.673-2.673 3.448 3.448-1.724 1.724c-0.242 0.241-0.391 0.575-0.391 0.943 0 0.097 0.010 0.191 0.030 0.282l-0.002-0.009c0.032 0.153 0.815 3.789 3.028 6.003s5.849 2.996 6.003 3.028c0.083 0.019 0.179 0.029 0.277 0.029 0.367 0 0.699-0.149 0.939-0.391l1.725-1.724 3.448 3.448-2.675 2.673z"></path>
</symbol>
<symbol id="icon-minus" viewBox="0 0 32 32">
<path d="M6.667 14.667h18.667v2.667h-18.667v-2.667z"></path>
</symbol>
<symbol id="icon-menu-alt-right" viewBox="0 0 32 32">
<path d="M5.333 8h21.333v2.667h-21.333v-2.667zM10.667 14.667h16v2.667h-16v-2.667zM17.333 21.333h9.333v2.667h-9.333v-2.667z"></path>
</symbol>
<symbol id="icon-map" viewBox="0 0 32 32">
<path d="M16 18.667c2.941 0 5.333-2.392 5.333-5.333s-2.392-5.333-5.333-5.333-5.333 2.392-5.333 5.333 2.392 5.333 5.333 5.333zM16 10.667c1.471 0 2.667 1.196 2.667 2.667s-1.196 2.667-2.667 2.667-2.667-1.196-2.667-2.667 1.196-2.667 2.667-2.667z"></path>
<path d="M15.227 29.085c0.215 0.155 0.483 0.248 0.773 0.248s0.559-0.093 0.777-0.25l-0.004 0.003c0.405-0.287 9.933-7.165 9.893-15.752 0-5.881-4.785-10.667-10.667-10.667-5.88 0-10.667 4.785-10.667 10.66-0.039 8.593 9.488 15.472 9.893 15.759zM16 5.333c4.413 0 8 3.588 8 8.007 0.028 5.917-5.851 11.231-8 12.973-2.147-1.744-8.027-7.059-8-12.98 0-4.412 3.588-8 8-8z"></path>
</symbol>
<symbol id="icon-logo" viewBox="0 0 75 32">
<path fill="#fefefd" style="fill: var(--color1, #fefefd)" d="M1.755 16.717c0 0.057-0.001 0.115-0.002 0.171l0.002-0.168v-0.003z"></path>
<path fill="#010101" style="fill: var(--color2, #010101)" d="M13.65 8.345c0.243-0.013 0.507-0.027 0.727 0.023 0.123 0.028 0.205 0.073 0.277 0.182 0.045 0.249 0.087 0.495 0.095 0.748 0.020 0.537 0.015 1.078 0.010 1.617-0.003 0.245-0.005 0.489-0.005 0.733v4.649c0 0.153 0.005 0.409 0.010 0.723 0.019 1.095 0.049 2.876-0.049 3.269-0.071 0.281-0.215 0.411-0.459 0.555-0.218 0.027-0.445 0.033-0.67 0.038-0.118 0.003-0.235 0.005-0.351 0.011-1.086 0.055-2.232 0.167-3.229 0.627-0.267 0.124-0.535 0.269-0.769 0.448-0.12 0.091-0.255 0.219-0.398 0.353-0.357 0.339-0.769 0.729-1.159 0.751-0.449 0.025-0.875-0.359-1.267-0.713-0.187-0.168-0.367-0.33-0.537-0.438-0.415-0.261-0.883-0.463-1.347-0.615-0.767-0.25-1.579-0.379-2.383-0.427-0.121-0.007-0.247-0.007-0.372-0.006-0.233 0.001-0.469 0.001-0.689-0.047-0.191-0.043-0.315-0.14-0.46-0.268-0.105-0.25-0.137-0.56-0.151-0.83-0.023-0.483-0.017-0.973-0.011-1.46 0.003-0.215 0.005-0.431 0.005-0.646l0.003-4.112-0.003-3.111c0-0.136-0.005-0.283-0.011-0.436-0.016-0.413-0.034-0.864 0.056-1.217 0.049-0.193 0.161-0.279 0.323-0.383 1.784-0.115 3.732 0.255 5.3 1.127 0.52 0.29 0.99 0.644 1.464 1.003 0.267-0.199 0.535-0.397 0.809-0.585 1.476-1.009 3.233-1.507 5.013-1.551 0.073-0.002 0.149-0.007 0.228-0.011zM13.445 9.742c-0.216 0.001-0.445-0.012-0.659 0.016-1.464 0.133-3.343 0.669-4.337 1.835-0.037 0.044-0.077 0.094-0.116 0.145l-0.006 0.009-0.002 9.156c0.162-0.118 0.323-0.24 0.489-0.355 1.368-0.817 3.079-0.958 4.637-1.070 0-3.243 0.044-6.493-0.007-9.735zM1.778 9.744c-0.033 1.355-0.027 2.715-0.020 4.072 0.003 0.557 0.007 1.113 0.007 1.669 0 0.408-0.005 0.82-0.011 1.232v0.003c-0.011 0.912-0.023 1.829 0.023 2.731 1.801 0.155 3.61 0.333 5.111 1.435-0.009-3.039 0.009-6.077 0.051-9.115-1.179-1.245-3.025-1.981-4.727-2.029-0.050-0.001-0.109-0.002-0.168-0.002-0.093 0-0.186 0.002-0.279 0.005l0.013-0z"></path>
<path fill="#010101" style="fill: var(--color2, #010101)" d="M13.65 8.345v0zM14.377 8.367l-0.047 0.212 0.047-0.212zM14.653 8.549l0.213-0.040-0.008-0.043-0.023-0.036-0.182 0.119zM14.749 9.297v0zM14.759 10.915v0zM14.753 16.297v0zM14.763 17.020v0zM14.715 20.289l0.211 0.053-0.211-0.053zM14.256 20.843l0.027 0.215 0.045-0.005 0.038-0.023-0.11-0.187zM13.586 20.881v0zM13.235 20.892v0zM10.006 21.519v0.001zM9.237 21.967v0zM8.839 22.32l-0.149-0.157 0.149 0.158zM7.68 23.071v0zM6.413 22.357h-0.001zM5.876 21.919v0zM4.529 21.304v0zM2.147 20.877l-0.013 0.217 0.013-0.217zM1.775 20.871v0zM1.085 20.824v0zM0.625 20.556l-0.2 0.085 0.020 0.045 0.037 0.033 0.144-0.163zM0.475 19.727v0zM0.463 18.267l-0.217-0.002 0.217 0.003zM0.469 17.621v0zM0.472 13.509v0zM0.469 10.397v0zM0.457 9.961v0zM0.513 8.745v0zM0.837 8.362l-0.014-0.217-0.056 0.004-0.047 0.030 0.117 0.183zM6.137 9.489v0.001zM7.601 10.491l-0.131 0.173 0.13 0.098 0.131-0.097-0.129-0.174zM8.409 9.907v0zM13.422 8.356v0zM13.445 9.743l0.217-0.003-0.003-0.216-0.215 0.002 0.001 0.217zM12.786 9.759l0.020 0.217 0.009-0.001-0.029-0.215zM8.449 11.593v0zM8.327 11.747l-0.173-0.131-0.043 0.058v0.072h0.217zM8.325 20.903h-0.217v0.427l0.345-0.251-0.127-0.175zM8.814 20.548l-0.111-0.187-0.007 0.004-0.006 0.004 0.124 0.179zM13.451 19.478l0.015 0.217 0.202-0.015v-0.202h-0.217zM1.778 9.745l-0.007-0.217-0.205 0.007-0.005 0.205 0.217 0.006zM1.758 13.817h0.001zM1.765 15.486h-0.001zM1.754 16.718l-0.217-0.003v0.003h0.217zM1.754 16.721l0.217 0.003v-0.003h-0.218zM1.777 19.451l-0.217 0.011 0.009 0.189 0.189 0.017 0.019-0.217zM6.887 20.886l-0.128 0.175 0.347 0.255-0.001-0.431-0.217 0.001zM6.938 11.771l0.217 0.003 0.001-0.088-0.061-0.064-0.158 0.149zM2.211 9.742l0.006-0.217h-0.001l-0.005 0.217zM13.65 8.345l0.011 0.217c0.251-0.013 0.482-0.023 0.668 0.018l0.047-0.212 0.048-0.212c-0.255-0.057-0.549-0.040-0.785-0.027l0.011 0.217zM14.377 8.368l-0.047 0.212c0.034 0.006 0.064 0.017 0.091 0.033l-0.001-0.001c0.022 0.015 0.039 0.034 0.052 0.056l0 0.001 0.364-0.237c-0.091-0.143-0.237-0.245-0.408-0.275l-0.004-0.001-0.047 0.212zM14.653 8.55l-0.213 0.039c0.045 0.248 0.083 0.481 0.092 0.717l0.434-0.016c-0.016-0.287-0.051-0.554-0.105-0.815l0.006 0.035-0.213 0.040zM14.749 9.298l-0.217 0.008c0.020 0.531 0.015 1.067 0.009 1.607l0.435 0.004c0.005-0.539 0.010-1.085-0.010-1.627l-0.217 0.008zM14.759 10.915l-0.217-0.002c-0.002 0.244-0.005 0.49-0.005 0.735h0.435c0-0.243 0.003-0.485 0.005-0.731l-0.217-0.002zM14.753 11.649h-0.217v4.649h0.435v-4.649h-0.217zM14.753 16.298h-0.217c0 0.155 0.005 0.413 0.010 0.727l0.435-0.008c-0.006-0.313-0.010-0.569-0.010-0.719h-0.217zM14.763 17.021l-0.217 0.003c0.009 0.549 0.022 1.265 0.020 1.893-0.001 0.315-0.007 0.605-0.017 0.84-0.011 0.242-0.027 0.405-0.046 0.479l0.211 0.053 0.211 0.053c0.031-0.123 0.047-0.33 0.058-0.567 0.011-0.243 0.015-0.54 0.017-0.857 0.002-0.634-0.010-1.355-0.020-1.903l-0.217 0.004zM14.715 20.289l-0.211-0.053c-0.020 0.092-0.061 0.173-0.117 0.239l0.001-0.001c-0.053 0.060-0.127 0.114-0.241 0.182l0.11 0.187 0.11 0.187c0.129-0.075 0.249-0.157 0.347-0.269 0.102-0.115 0.17-0.251 0.213-0.42l-0.211-0.053zM14.256 20.844l-0.027-0.215c-0.205 0.026-0.42 0.031-0.647 0.036l0.005 0.217 0.005 0.217c0.223-0.005 0.462-0.010 0.693-0.039l-0.027-0.215zM13.586 20.882l-0.005-0.217c-0.117 0.003-0.238 0.005-0.357 0.011l0.011 0.217 0.011 0.217c0.112-0.006 0.227-0.009 0.345-0.011l-0.005-0.217zM13.235 20.893l-0.011-0.217c-1.087 0.055-2.271 0.167-3.309 0.647l0.091 0.197 0.091 0.197c0.955-0.441 2.065-0.552 3.149-0.607l-0.011-0.217zM10.006 21.519l-0.091-0.197c-0.275 0.127-0.558 0.28-0.81 0.471l0.263 0.346c0.211-0.157 0.451-0.298 0.705-0.413l0.025-0.010-0.091-0.197zM9.237 21.967l-0.132-0.173c-0.131 0.1-0.275 0.237-0.415 0.369l0.149 0.158 0.149 0.157c0.146-0.138 0.271-0.256 0.38-0.339l-0.131-0.173zM8.839 22.321l-0.149-0.157c-0.167 0.166-0.345 0.322-0.532 0.466l-0.013 0.010c-0.187 0.135-0.345 0.208-0.476 0.215l0.024 0.433c0.258-0.014 0.5-0.147 0.707-0.297 0.21-0.153 0.413-0.345 0.589-0.512l-0.149-0.157zM7.68 23.071l-0.012-0.217c-0.159 0.009-0.33-0.054-0.525-0.18s-0.386-0.298-0.585-0.477l-0.146 0.161-0.145 0.161c0.193 0.175 0.411 0.371 0.64 0.52s0.494 0.265 0.785 0.249l-0.012-0.217zM6.413 22.358l0.145-0.161c-0.183-0.164-0.377-0.34-0.567-0.46l-0.116 0.183-0.116 0.184c0.151 0.095 0.317 0.243 0.507 0.415l0.145-0.161zM5.876 21.92l0.116-0.183c-0.433-0.273-0.919-0.482-1.395-0.638l-0.068 0.207-0.067 0.206c0.496 0.159 0.926 0.36 1.324 0.607l-0.025-0.014 0.116-0.184zM4.529 21.305l0.067-0.207c-0.788-0.257-1.619-0.388-2.437-0.437l-0.013 0.217-0.012 0.217c0.79 0.047 1.583 0.173 2.327 0.416l0.068-0.207zM2.147 20.878l0.013-0.217c-0.089-0.005-0.194-0.007-0.298-0.007-0.031 0-0.062 0-0.092 0.001l0.005-0 0.001 0.435c0.127 0 0.245-0.001 0.358 0.006l0.013-0.217zM1.775 20.872v-0.217c-0.238 0.001-0.45 0-0.643-0.043l-0.047 0.213-0.047 0.212c0.247 0.055 0.508 0.053 0.737 0.053v-0.217zM1.085 20.825l0.047-0.212c-0.134-0.030-0.223-0.095-0.362-0.219l-0.288 0.325c0.149 0.132 0.307 0.262 0.556 0.317l0.047-0.212zM0.625 20.557l0.201-0.084c-0.089-0.213-0.121-0.49-0.134-0.756l-0.217 0.010-0.217 0.011c0.013 0.273 0.047 0.616 0.167 0.904l0.2-0.085zM0.475 19.727l0.217-0.010c-0.011-0.272-0.017-0.591-0.017-0.911 0-0.188 0.002-0.376 0.006-0.563l-0 0.028-0.218-0.003-0.217-0.003c-0.007 0.486-0.013 0.982 0.011 1.473l0.217-0.011zM0.463 18.267l0.217 0.003c0.003-0.216 0.005-0.433 0.005-0.649h-0.434c0 0.213-0.003 0.428-0.005 0.644l0.217 0.003zM0.469 17.621h0.217l0.003-4.112h-0.435l-0.003 4.111h0.217zM0.472 13.509h0.217l-0.003-3.111h-0.434l0.003 3.111h0.217zM0.469 10.397h0.217c0-0.141-0.006-0.293-0.012-0.445l-0.217 0.009-0.217 0.008c0.007 0.153 0.011 0.297 0.012 0.428h0.217zM0.457 9.961l0.217-0.009c-0.016-0.423-0.031-0.839 0.049-1.153l-0.21-0.055-0.211-0.053c-0.099 0.389-0.078 0.875-0.063 1.279l0.217-0.009zM0.513 8.745l0.21 0.054c0.028-0.109 0.077-0.156 0.23-0.253l-0.117-0.183-0.117-0.183c-0.171 0.109-0.347 0.233-0.417 0.512l0.211 0.053zM0.837 8.362l0.014 0.217c1.748-0.113 3.653 0.251 5.18 1.1l0.105-0.189 0.106-0.19c-1.609-0.895-3.6-1.272-5.419-1.153l0.014 0.216zM6.137 9.489l-0.107 0.191c0.506 0.281 0.963 0.625 1.44 0.985l0.261-0.347c-0.472-0.357-0.953-0.72-1.489-1.019l-0.106 0.19zM7.601 10.491l0.129 0.173c0.267-0.198 0.532-0.394 0.802-0.579l-0.123-0.18-0.122-0.179c-0.279 0.19-0.55 0.391-0.817 0.59l0.13 0.173zM8.409 9.907l0.123 0.179c1.437-0.982 3.152-1.47 4.895-1.513l-0.005-0.217-0.005-0.217c-1.816 0.045-3.615 0.553-5.129 1.589l0.122 0.179zM13.422 8.356l0.005 0.217c0.077-0.002 0.157-0.007 0.234-0.011l-0.011-0.217-0.012-0.217c-0.080 0.004-0.153 0.008-0.221 0.010l0.005 0.217zM13.445 9.743l-0.002-0.217c-0.195 0.001-0.453-0.013-0.685 0.018l0.057 0.431c0.196-0.026 0.395-0.013 0.632-0.015l-0.002-0.217zM12.786 9.759l-0.020-0.216c-0.884 0.080-1.699 0.272-2.465 0.564l0.063-0.021c-0.797 0.304-1.551 0.747-2.080 1.367l0.165 0.141 0.165 0.141c0.465-0.545 1.147-0.954 1.904-1.243 0.669-0.257 1.445-0.44 2.252-0.514l0.034-0.003-0.020-0.216zM8.449 11.593l-0.166-0.14c-0.045 0.053-0.088 0.107-0.129 0.163l0.173 0.131 0.173 0.13c0.037-0.049 0.075-0.097 0.115-0.143l-0.166-0.14zM8.327 11.747h-0.217l-0.003 9.156h0.434l0.003-9.156h-0.217zM8.325 20.903l0.127 0.175c0.167-0.121 0.323-0.239 0.485-0.352l-0.124-0.178-0.124-0.179c-0.167 0.116-0.335 0.243-0.493 0.357l0.129 0.176zM8.814 20.548l0.111 0.187c1.316-0.787 2.973-0.927 4.541-1.040l-0.031-0.433c-1.55 0.111-3.314 0.252-4.733 1.1l0.111 0.187zM13.451 19.478h0.217c0-3.239 0.043-6.494-0.007-9.739l-0.435 0.007c0.051 3.24 0.007 6.485 0.007 9.732h0.217zM1.778 9.745l-0.217-0.005c-0.033 1.358-0.027 2.721-0.019 4.079l0.435-0.003c-0.007-1.358-0.014-2.715 0.019-4.065l-0.217-0.005zM1.758 13.817l-0.217 0.001c0.003 0.557 0.006 1.113 0.006 1.668h0.434c0-0.557-0.003-1.113-0.005-1.671l-0.217 0.001zM1.765 15.486h-0.218c0 0.407-0.005 0.817-0.011 1.229l0.217 0.003 0.217 0.003c0.005-0.412 0.011-0.825 0.010-1.235h-0.217zM1.754 16.718h-0.217v0.003h0.435v-0.003h-0.218zM1.754 16.721l-0.217-0.003c-0.011 0.911-0.023 1.835 0.023 2.744l0.434-0.021c-0.045-0.893-0.034-1.804-0.023-2.717l-0.217-0.003zM1.777 19.451l-0.019 0.217c1.81 0.155 3.557 0.333 5.001 1.393l0.128-0.176 0.129-0.175c-1.557-1.143-3.427-1.321-5.22-1.475l-0.019 0.216zM6.887 20.886l0.217-0.001c-0.009-3.037 0.008-6.074 0.051-9.111l-0.217-0.003-0.217-0.003c-0.043 3.040-0.060 6.079-0.051 9.119h0.217zM6.938 11.771l0.158-0.149c-1.224-1.293-3.127-2.047-4.88-2.097l-0.005 0.217-0.007 0.217c1.652 0.047 3.441 0.763 4.577 1.961l0.157-0.149zM2.211 9.742l0.005-0.217c-0.051-0.001-0.112-0.002-0.172-0.002-0.096 0-0.191 0.002-0.285 0.005l0.014-0 0.007 0.217 0.007 0.217c0.141-0.005 0.281-0.005 0.421-0.003l0.005-0.217zM20.32 9.345c1.74-0.030 4.671-0.081 5.636 0.288 0.737 0.283 1.364 0.839 1.685 1.565 0.316 0.716 0.339 1.663 0.052 2.392-0.307 0.779-0.869 1.107-1.596 1.421l0.17 0.059c0.156 0.053 0.312 0.109 0.459 0.181 0.668 0.341 1.177 0.915 1.423 1.613l0.006 0.020c0.295 0.871 0.182 1.847-0.217 2.663-0.299 0.507-0.718 0.914-1.218 1.192l-0.016 0.008c-0.455 0.255-0.905 0.357-1.419 0.425-0.782 0.104-5.312 0.171-5.881-0.022-0.077-0.027-0.153-0.055-0.188-0.131-0.084-0.181-0.095-0.46-0.105-0.674l-0.002-0.060c-0.055-1.217-0.037-2.452-0.020-3.681 0.008-0.547 0.017-1.093 0.018-1.636 0.001-0.523-0.006-1.049-0.013-1.577-0.013-1.029-0.027-2.061 0.020-3.078 0.011-0.22 0.029-0.467 0.109-0.673 0.060-0.159 0.139-0.213 0.287-0.284 0.219-0.001 0.495-0.006 0.81-0.011zM24.669 15.956c-0.634-0.151-2.637-0.047-3.399-0.047v3.475c0.895 0.002 2.843 0.115 3.61-0.081 0.282-0.067 0.526-0.201 0.724-0.384l-0.001 0.001c0.345-0.407 0.523-0.817 0.472-1.362-0.047-0.485-0.253-0.897-0.631-1.208-0.216-0.182-0.476-0.318-0.762-0.391l-0.013-0.003zM25.206 11.495c-0.611-0.473-2.213-0.422-3.303-0.387-0.178 0.007-0.399 0.013-0.621 0.015l-0.011 0 0.001 3.093c0.203 0.001 0.451 0.007 0.72 0.015 0.893 0.023 2.031 0.052 2.625-0.1 0.28-0.069 0.524-0.195 0.73-0.366l-0.003 0.002c0.291-0.352 0.449-0.753 0.411-1.216-0.033-0.407-0.227-0.805-0.551-1.057zM38.271 16.265c-0.309-2.259-2.226-3.98-4.545-3.98-2.532 0-4.585 2.053-4.585 4.585 0 0.213 0.015 0.424 0.043 0.629l-0.003-0.024c0.309 2.259 2.226 3.98 4.545 3.98 2.532 0 4.585-2.053 4.585-4.585 0-0.213-0.015-0.424-0.043-0.629l0.003 0.024zM33.411 14.267c0.51-0.025 0.96-0.017 1.411 0.259 0.507 0.309 0.823 0.837 0.96 1.405 0.195 0.804 0.149 1.912-0.303 2.627-0.324 0.513-0.775 0.74-1.347 0.865-0.549 0.055-1.093 0.003-1.564-0.312-0.495-0.333-0.784-0.875-0.897-1.451-0.159-0.817-0.109-1.878 0.385-2.577 0.339-0.48 0.79-0.717 1.355-0.817zM48.111 16.237c-0.297-2.268-2.218-4.001-4.543-4.001-2.529 0-4.58 2.051-4.58 4.58 0 0.238 0.018 0.472 0.053 0.7l-0.003-0.026c0.34 2.223 2.239 3.905 4.53 3.905 2.529 0 4.58-2.051 4.58-4.58 0-0.204-0.013-0.405-0.039-0.602l0.002 0.023zM43.216 14.268c0.495-0.041 0.975-0.025 1.421 0.224 0.529 0.297 0.853 0.817 1.003 1.391 0.216 0.825 0.173 1.89-0.279 2.635-0.32 0.527-0.777 0.773-1.36 0.904-0.547 0.071-1.085 0.010-1.555-0.299-0.502-0.329-0.793-0.867-0.915-1.443-0.172-0.815-0.116-1.864 0.359-2.572 0.323-0.48 0.771-0.726 1.327-0.84zM49.939 8.973c0.034-0.003 0.068-0.005 0.103-0.007 0.34-0.011 1.099-0.077 1.33 0.234 0.099 0.133 0.113 0.411 0.125 0.575 0.051 0.691 0.010 1.415 0.010 2.11l0.001 4.091c0.484-0.575 1.041-1.102 1.551-1.655 0.504-0.547 0.989-1.175 1.547-1.662 0.133-0.116 0.233-0.177 0.405-0.224 0.357-0.097 1.649-0.169 1.921 0.025 0.070 0.049 0.129 0.145 0.123 0.232-0.024 0.389-2.597 2.927-3.045 3.37 1.599 2.363 2.42 3.53 3.248 4.691l-0.751-1.109c0.209 0.303 0.803 0.953 0.727 1.329-0.022 0.085-0.078 0.153-0.152 0.193l-0.002 0.001c-0.387 0.212-1.868 0.073-2.331-0.079-0.331-0.332-0.6-0.813-0.866-1.199l-1.61-2.347-0.769 0.668c-0.003 0.616 0.181 2.427-0.215 2.84-0.177 0.185-0.409 0.199-0.649 0.201-0.369 0.003-1.081 0.065-1.351-0.199-0.069-0.709-0.046-1.427-0.047-2.138l-0.001-3.039v-4.164c0-0.74-0.027-1.491 0.008-2.229 0.005-0.1 0.007-0.185 0.067-0.271 0.141-0.205 0.398-0.208 0.623-0.239zM65.589 12.355c0.486-0.010 1.453-0.117 1.89 0.063 0.164 0.068 0.238 0.235 0.311 0.388 0.311 0.649 0.515 1.396 0.765 2.073 0.435 1.178 0.905 2.343 1.347 3.519 0.257-0.663 2.030-5.607 2.321-5.853 0.142-0.12 0.413-0.147 0.59-0.151 0.374-0.011 1.073-0.093 1.356 0.168 0.071 0.168 0.062 0.26 0.021 0.441-0.145 0.631-0.454 1.285-0.68 1.893l-1.455 3.91-0.983 2.665c-0.197 0.538-0.372 1.113-0.628 1.625-0.148 0.3-0.327 0.559-0.537 0.788l0.002-0.002c-0.523 0.56-1.207 0.801-1.959 0.827-0.323 0.011-0.876 0.071-1.125-0.159-0.159-0.321-0.172-1.071-0.070-1.418 0.1-0.337 0.839-0.273 1.137-0.441 0.479-0.27 0.61-0.801 0.734-1.295-0.385-1.165-3.285-8.287-3.257-8.69 0.012-0.175 0.095-0.249 0.221-0.351zM60.825 12.32c0.243-0.037 0.511-0.027 0.758-0.024 0.983 0.010 2.083 0.217 2.791 0.957 0.325 0.34 0.563 0.853 0.527 1.333-0.005 0.081-0.028 0.199-0.098 0.248-0.353 0.249-1.317 0.2-1.737 0.144-0.372-0.050-0.343-0.299-0.573-0.571-0.253-0.3-0.622-0.447-1.007-0.475-0.429-0.031-0.97 0.108-1.289 0.409-0.14 0.133-0.289 0.475-0.267 0.667 0.1 0.835 2.453 0.943 3.13 1.113 0.573 0.144 1.165 0.359 1.624 0.746 0.435 0.367 0.632 0.867 0.676 1.425 0.055 0.689-0.147 1.348-0.603 1.869-0.793 0.906-1.951 1.172-3.102 1.257-0.885 0.030-1.837-0.091-2.633-0.5-0.577-0.297-1.098-0.76-1.291-1.4-0.079-0.261-0.131-0.567 0.007-0.815 0.403-0.315 1.501-0.192 1.99-0.173 0.164 0.25 0.265 0.544 0.49 0.752 0.38 0.349 0.939 0.455 1.44 0.43 0.409-0.020 0.845-0.137 1.12-0.462 0.152-0.179 0.24-0.409 0.217-0.647-0.091-0.947-2.423-0.943-3.145-1.11-0.521-0.12-1.053-0.331-1.475-0.666-0.445-0.353-0.729-0.828-0.783-1.397-0.006-0.069-0.010-0.149-0.010-0.23 0-0.645 0.229-1.237 0.61-1.698l-0.004 0.005c0.669-0.81 1.63-1.085 2.637-1.183z"></path>
</symbol>
<symbol id="icon-left-arrow-alt" viewBox="0 0 32 32">
<path d="M16.943 23.057l-5.724-5.724h12.781v-2.667h-12.781l5.724-5.724-1.885-1.885-8.943 8.943 8.943 8.943 1.885-1.885z"></path>
</symbol>
<symbol id="icon-email" viewBox="0 0 32 32">
<path d="M26.667 5.333h-21.333c-1.471 0-2.667 1.196-2.667 2.667v16c0 1.471 1.196 2.667 2.667 2.667h21.333c1.471 0 2.667-1.196 2.667-2.667v-16c0-1.471-1.196-2.667-2.667-2.667zM26.667 8v0.681l-10.667 8.297-10.667-8.296v-0.683h21.333zM5.333 24v-11.941l9.848 7.66c0.223 0.176 0.508 0.283 0.819 0.283s0.596-0.107 0.821-0.285l-0.003 0.002 9.848-7.66 0.003 11.941h-21.336z"></path>
</symbol>
<symbol id="icon-down-arrow-alt" viewBox="0 0 32 32">
<path d="M24.943 16.943l-1.885-1.885-5.724 5.724v-12.781h-2.667v12.781l-5.724-5.724-1.885 1.885 8.943 8.943 8.943-8.943z"></path>
</symbol>
<symbol id="icon-close" viewBox="0 0 32 32">
<path d="M21.589 8.459l-5.657 5.656-5.656-5.656-1.885 1.885 5.656 5.656-5.656 5.656 1.885 1.885 5.656-5.656 5.657 5.656 1.885-1.885-5.656-5.656 5.656-5.656-1.885-1.885z"></path>
</symbol>
<symbol id="icon-chevron-up" viewBox="0 0 32 32">
<path d="M8.391 19.057l1.885 1.885 5.724-5.724 5.724 5.724 1.885-1.885-7.609-7.609-7.609 7.609z"></path>
</symbol>
<symbol id="icon-chevron-right" viewBox="0 0 32 32">
<path d="M12.943 22.6l7.609-7.609-7.609-7.609-1.885 1.885 5.724 5.724-5.724 5.724 1.885 1.885z"></path>
</symbol>
<symbol id="icon-chevron-left" viewBox="0 0 32 32">
<path d="M17.724 8.391l-7.609 7.609 7.609 7.609 1.885-1.885-5.724-5.724 5.724-5.724-1.885-1.885z"></path>
</symbol>
<symbol id="icon-chevron-down" viewBox="0 0 32 32">
<path d="M21.724 11.057l-5.724 5.724-5.724-5.724-1.885 1.885 7.609 7.609 7.609-7.609-1.885-1.885z"></path>
</symbol>
<symbol id="icon-check" viewBox="0 0 32 32">
<path d="M13.333 20.781l-4.391-4.391-1.885 1.885 6.276 6.276 12.943-12.943-1.885-1.885-11.057 11.057z"></path>
</symbol>
</defs>
</svg>
