<svg aria-hidden="true" style="position: absolute; width: 0; height: 0; overflow: hidden;" version="1.1" xmlns="http://www.w3.org/2000/svg" xmlns:xlink="http://www.w3.org/1999/xlink">
<defs>
<symbol id="icon-logo" viewBox="0 0 32 32">
<path d="M0.568 16.118c-0 0.025-0.001 0.049-0.001 0.074 0-0.024 0.001-0.049 0.001-0.073v-0.001z"></path>
<path d="M5.728 12.487c0.106-0.006 0.219-0.011 0.315 0.010 0.054 0.012 0.089 0.032 0.12 0.079 0.020 0.108 0.037 0.215 0.041 0.325 0.009 0.233 0.007 0.467 0.005 0.701-0.001 0.106-0.002 0.212-0.002 0.318v2.017c0 0.066 0.002 0.178 0.004 0.313 0.008 0.475 0.022 1.248-0.021 1.418-0.031 0.122-0.093 0.178-0.199 0.241-0.094 0.012-0.193 0.014-0.291 0.017-0.051 0.001-0.102 0.002-0.152 0.005-0.471 0.024-0.968 0.072-1.401 0.272-0.116 0.053-0.232 0.116-0.334 0.194-0.052 0.040-0.111 0.095-0.173 0.154-0.155 0.147-0.334 0.316-0.503 0.325-0.195 0.011-0.379-0.156-0.549-0.309-0.081-0.073-0.159-0.143-0.233-0.19-0.18-0.113-0.383-0.201-0.584-0.267-0.332-0.109-0.684-0.165-1.033-0.185-0.053-0.003-0.107-0.003-0.162-0.003-0.101 0-0.204 0.001-0.299-0.020-0.083-0.018-0.137-0.061-0.199-0.116-0.046-0.109-0.060-0.243-0.066-0.36-0.010-0.21-0.008-0.422-0.005-0.633 0.001-0.094 0.002-0.187 0.002-0.28l0.001-1.784-0.001-1.35c-0-0.059-0.003-0.123-0.005-0.189-0.007-0.179-0.015-0.375 0.024-0.527 0.021-0.084 0.070-0.121 0.14-0.166 0.774-0.050 1.619 0.111 2.299 0.489 0.226 0.126 0.429 0.279 0.635 0.435 0.116-0.086 0.232-0.172 0.351-0.254 0.64-0.437 1.402-0.653 2.174-0.672 0.032-0.001 0.065-0.003 0.099-0.005zM5.639 13.093c-0.094 0.001-0.193-0.005-0.286 0.007-0.635 0.057-1.45 0.29-1.881 0.796-0.018 0.022-0.036 0.044-0.053 0.067l-0.001 3.971c0.071-0.051 0.14-0.104 0.212-0.154 0.593-0.354 1.335-0.415 2.012-0.464 0-1.407 0.019-2.816-0.003-4.223zM0.579 13.094c-0.015 0.588-0.011 1.178-0.008 1.767 0.001 0.241 0.003 0.483 0.003 0.724 0 0.177-0.002 0.356-0.005 0.534v0.002c-0.005 0.396-0.010 0.793 0.010 1.184 0.781 0.067 1.566 0.144 2.216 0.622-0.004-1.318 0.003-2.636 0.022-3.954-0.512-0.54-1.312-0.859-2.050-0.88-0.062-0.001-0.125-0.001-0.188 0.001z"></path>
<path d="M5.728 12.487v0zM6.043 12.497v0zM6.163 12.575l0.093-0.017-0.003-0.019-0.010-0.016-0.079 0.052zM6.204 12.9v0zM6.209 13.601v0zM6.207 15.936h-0.094v0l0.094-0zM6.211 16.249v0zM6.19 17.667v0zM5.991 17.908l0.012 0.093 0.019-0.002 0.017-0.010-0.048-0.081zM5.7 17.924v0zM5.548 17.929l-0.005-0.094h-0l0.005 0.094zM4.148 18.201v0zM3.814 18.395v0zM3.641 18.549v0zM3.139 18.874l0.005 0.094h0l-0.005-0.094zM2.589 18.565v0zM2.356 18.375v0zM1.772 18.108l0.029-0.090h-0l-0.029 0.090zM0.739 17.923l-0.006 0.094h0l0.006-0.094zM0.577 17.92v0zM0.278 17.9l-0.020 0.092 0 0 0.020-0.092zM0.079 17.784l-0.087 0.037 0.008 0.020 0.016 0.014 0.062-0.071zM0.014 17.423v0zM0.009 16.79v0zM0.011 16.51v0zM0.012 14.726l0.094 0v-0l-0.094 0zM0.011 13.377v0zM0.006 13.188v0zM0.030 12.66v0zM0.171 12.494l-0.006-0.094-0.024 0.002-0.020 0.013 0.051 0.079zM2.469 12.983v0zM3.104 13.418l-0.057 0.075 0.056 0.043 0.057-0.042-0.056-0.076zM3.455 13.164v0zM5.629 12.492l0.002 0.094h0l-0.002-0.094zM5.639 13.093l0.094-0.001-0.001-0.094-0.094 0.001 0.001 0.094zM5.353 13.1l0.009 0.094 0.004-0.001-0.012-0.093zM3.472 13.896l-0.072-0.061-0 0 0.072 0.061zM3.419 13.962l-0.075-0.057-0.019 0.025v0.031l0.094 0zM3.418 17.934l-0.094-0-0 0.185 0.15-0.109-0.055-0.076zM3.63 17.78l-0.048-0.081-0.003 0.002-0.003 0.002 0.054 0.077zM5.642 17.316l0.007 0.094 0.087-0.006v-0.088h-0.094zM0.579 13.094l-0.003-0.094-0.089 0.003-0.002 0.089 0.094 0.002zM0.57 14.86v0zM0.573 15.584v0zM0.569 16.118l-0.094-0.001v0.001h0.094zM0.569 16.12l0.094 0.001v-0.001h-0.094zM0.578 17.304l-0.094 0.005 0.004 0.082 0.082 0.007 0.008-0.094zM2.795 17.926l-0.056 0.076 0.151 0.11-0.001-0.187-0.094 0zM2.817 13.972l0.094 0.001 0.001-0.038-0.026-0.028-0.068 0.065zM0.766 13.092l0.003-0.094h-0.001l-0.002 0.094zM5.728 12.487l0.005 0.094c0.109-0.006 0.209-0.010 0.289 0.008l0.041-0.184c-0.11-0.025-0.238-0.017-0.34-0.012l0.005 0.094zM6.043 12.497l-0.021 0.092c0.021 0.005 0.032 0.009 0.039 0.014s0.014 0.010 0.023 0.024l0.158-0.103c-0.022-0.033-0.047-0.060-0.080-0.081s-0.066-0.031-0.098-0.039l-0.021 0.092zM6.163 12.575l-0.093 0.017c0.020 0.107 0.036 0.209 0.040 0.311l0.188-0.007c-0.004-0.117-0.023-0.23-0.043-0.338l-0.093 0.017zM6.204 12.9l-0.094 0.004c0.009 0.23 0.007 0.463 0.004 0.697l0.188 0.002c0.002-0.234 0.004-0.47-0.005-0.706l-0.094 0.004zM6.209 13.601l-0.094-0.001c-0.001 0.106-0.002 0.213-0.002 0.319h0.188c0-0.105 0.001-0.211 0.002-0.317l-0.094-0.001zM6.207 13.92h-0.094v2.017h0.188v-2.017h-0.094zM6.207 15.936l-0.094 0c0 0.067 0.002 0.179 0.004 0.315l0.188-0.003c-0.002-0.136-0.004-0.246-0.004-0.312l-0.094 0zM6.211 16.249l-0.094 0.002c0.004 0.238 0.010 0.549 0.009 0.821-0 0.136-0.003 0.262-0.007 0.364-0.005 0.105-0.012 0.176-0.020 0.208l0.183 0.046c0.013-0.053 0.021-0.143 0.025-0.245 0.005-0.106 0.007-0.235 0.007-0.372 0.001-0.275-0.004-0.588-0.009-0.825l-0.094 0.002zM6.19 17.667l-0.091-0.023c-0.012 0.049-0.029 0.079-0.051 0.103-0.023 0.026-0.055 0.049-0.105 0.079l0.096 0.162c0.056-0.033 0.108-0.069 0.15-0.117 0.044-0.050 0.073-0.109 0.092-0.182l-0.091-0.023zM5.991 17.908l-0.012-0.093c-0.089 0.011-0.183 0.014-0.281 0.016l0.004 0.188c0.097-0.002 0.2-0.005 0.3-0.017l-0.012-0.093zM5.7 17.924l-0.002-0.094c-0.050 0.001-0.103 0.002-0.155 0.005l0.005 0.094 0.005 0.094c0.048-0.002 0.098-0.003 0.149-0.004l-0.002-0.094zM5.548 17.929l-0.005-0.094c-0.472 0.024-0.985 0.073-1.435 0.281l0.079 0.171c0.415-0.192 0.896-0.24 1.366-0.264l-0.005-0.094zM4.148 18.201l-0.040-0.085c-0.119 0.055-0.242 0.121-0.351 0.204l0.114 0.15c0.094-0.072 0.204-0.131 0.316-0.183l-0.040-0.085zM3.814 18.395l-0.057-0.075c-0.057 0.043-0.119 0.102-0.181 0.16l0.13 0.137c0.063-0.060 0.118-0.111 0.165-0.147l-0.057-0.075zM3.641 18.549l-0.065-0.068c-0.078 0.074-0.157 0.149-0.237 0.206-0.081 0.059-0.15 0.090-0.206 0.093l0.010 0.188c0.112-0.006 0.217-0.064 0.307-0.129 0.091-0.066 0.179-0.149 0.256-0.222l-0.065-0.068zM3.139 18.874l-0.005-0.094c-0.069 0.004-0.143-0.023-0.227-0.078s-0.167-0.129-0.254-0.207l-0.126 0.14c0.084 0.076 0.178 0.161 0.277 0.225s0.214 0.115 0.34 0.108l-0.005-0.094zM2.589 18.565l0.063-0.070c-0.079-0.072-0.164-0.148-0.246-0.199l-0.101 0.159c0.066 0.042 0.138 0.106 0.22 0.18l0.063-0.070zM2.356 18.375l0.050-0.080c-0.188-0.119-0.399-0.209-0.605-0.277l-0.059 0.179c0.196 0.064 0.392 0.149 0.563 0.257l0.050-0.080zM1.772 18.108l0.029-0.090c-0.342-0.112-0.702-0.169-1.057-0.19l-0.006 0.094-0.006 0.094c0.343 0.020 0.686 0.075 1.009 0.181l0.029-0.090zM0.739 17.923l0.006-0.094c-0.056-0.003-0.114-0.003-0.167-0.003l0 0.094 0 0.094c0.055-0 0.107-0 0.156 0.002l0.006-0.094zM0.577 17.92l-0-0.094c-0.103 0-0.195 0-0.278-0.018l-0.041 0.184c0.107 0.024 0.221 0.023 0.32 0.023l-0-0.094zM0.278 17.9l0.020-0.092c-0.058-0.013-0.097-0.041-0.157-0.095l-0.125 0.141c0.065 0.057 0.133 0.113 0.241 0.137l0.020-0.092zM0.079 17.784l0.087-0.037c-0.039-0.092-0.053-0.213-0.058-0.328l-0.188 0.009c0.006 0.119 0.020 0.267 0.073 0.392l0.087-0.037zM0.014 17.423l0.094-0.005c-0.010-0.206-0.007-0.416-0.005-0.627l-0.188-0.002c-0.003 0.211-0.005 0.426 0.005 0.639l0.094-0.005zM0.009 16.79l0.094 0.001c0.001-0.094 0.002-0.188 0.002-0.282l-0.188-0c-0 0.093-0.001 0.186-0.002 0.279l0.094 0.001zM0.011 16.51l0.094 0 0.002-1.784-0.188-0-0.002 1.784 0.094 0zM0.012 14.726l0.094-0-0.002-1.35-0.188 0 0.002 1.35 0.094-0zM0.011 13.377l0.094-0c-0-0.061-0.003-0.127-0.005-0.193l-0.188 0.007c0.003 0.067 0.005 0.129 0.005 0.185l0.094-0zM0.006 13.188l0.094-0.004c-0.007-0.184-0.013-0.364 0.022-0.501l-0.183-0.047c-0.043 0.169-0.034 0.379-0.027 0.554l0.094-0.004zM0.030 12.66l0.091 0.023c0.012-0.047 0.034-0.068 0.1-0.11l-0.101-0.159c-0.074 0.047-0.15 0.101-0.181 0.222l0.091 0.023zM0.171 12.494l0.006 0.094c0.758-0.049 1.585 0.109 2.247 0.477l0.092-0.165c-0.698-0.388-1.561-0.552-2.35-0.5l0.006 0.094zM2.469 12.983l-0.046 0.082c0.219 0.122 0.417 0.272 0.624 0.428l0.114-0.15c-0.205-0.155-0.413-0.313-0.646-0.442l-0.046 0.082zM3.104 13.418l0.056 0.076c0.116-0.086 0.231-0.171 0.348-0.252l-0.106-0.156c-0.121 0.083-0.239 0.17-0.354 0.256l0.056 0.076zM3.455 13.164l0.053 0.078c0.623-0.426 1.367-0.637 2.123-0.656l-0.002-0.094-0.002-0.094c-0.788 0.020-1.568 0.24-2.225 0.689l0.053 0.078zM5.629 12.492l0.002 0.094c0.033-0.001 0.068-0.003 0.102-0.005l-0.010-0.188c-0.035 0.002-0.067 0.004-0.096 0.004l0.002 0.094zM5.639 13.093l-0.001-0.094c-0.085 0.001-0.197-0.005-0.297 0.008l0.012 0.093 0.012 0.093c0.085-0.011 0.171-0.005 0.274-0.006l-0.001-0.094zM5.353 13.1l-0.008-0.094c-0.325 0.029-0.696 0.103-1.042 0.235s-0.673 0.324-0.902 0.593l0.143 0.122c0.202-0.237 0.498-0.414 0.826-0.539s0.681-0.196 0.992-0.224l-0.008-0.094zM3.472 13.896l-0.072-0.061c-0.020 0.023-0.038 0.047-0.056 0.071l0.151 0.113c0.016-0.022 0.033-0.043 0.049-0.062l-0.072-0.061zM3.419 13.962l-0.094-0-0.001 3.971 0.188 0 0.001-3.971-0.094-0zM3.418 17.934l0.055 0.076c0.073-0.053 0.14-0.104 0.21-0.153l-0.107-0.155c-0.073 0.050-0.145 0.106-0.214 0.155l0.055 0.076zM3.63 17.78l0.048 0.081c0.571-0.341 1.29-0.402 1.97-0.451l-0.007-0.094-0.007-0.094c-0.672 0.048-1.438 0.109-2.053 0.477l0.048 0.081zM5.642 17.316h0.094c0-1.405 0.019-2.817-0.003-4.224l-0.188 0.003c0.022 1.406 0.003 2.813 0.003 4.221h0.094zM0.579 13.094l-0.094-0.002c-0.015 0.589-0.011 1.181-0.008 1.769l0.188-0.001c-0.003-0.589-0.006-1.178 0.008-1.764l-0.094-0.002zM0.57 14.86l-0.094 0.001c0.001 0.241 0.003 0.482 0.003 0.723l0.188-0c-0-0.241-0.001-0.483-0.003-0.724l-0.094 0.001zM0.573 15.584l-0.094 0c0 0.176-0.002 0.354-0.005 0.533l0.188 0.002c0.002-0.179 0.005-0.358 0.005-0.535l-0.094 0zM0.569 16.118h-0.094v0.002h0.188v-0.002h-0.094zM0.569 16.12l-0.094-0.001c-0.005 0.395-0.010 0.796 0.010 1.19l0.188-0.009c-0.019-0.388-0.015-0.782-0.010-1.179l-0.094-0.001zM0.578 17.304l-0.008 0.094c0.785 0.068 1.542 0.144 2.169 0.604l0.111-0.152c-0.675-0.495-1.487-0.573-2.264-0.64l-0.008 0.094zM2.795 17.926l0.094-0c-0.004-1.317 0.003-2.635 0.022-3.952l-0.188-0.003c-0.018 1.318-0.026 2.637-0.022 3.955l0.094-0zM2.817 13.972l0.068-0.065c-0.531-0.56-1.356-0.888-2.116-0.909l-0.005 0.188c0.716 0.020 1.492 0.331 1.985 0.851l0.068-0.065zM0.766 13.092l0.002-0.094c-0.064-0.001-0.129-0.001-0.193 0.001l0.006 0.188c0.061-0.002 0.122-0.002 0.182-0.001l0.002-0.094z"></path>
<path d="M8.621 12.921c0.755-0.013 2.026-0.035 2.444 0.125 0.32 0.122 0.592 0.363 0.731 0.678 0.137 0.311 0.147 0.721 0.023 1.038-0.133 0.338-0.377 0.48-0.692 0.616 0.024 0.009 0.049 0.017 0.074 0.026 0.068 0.023 0.136 0.047 0.199 0.078 0.291 0.146 0.514 0.401 0.62 0.709 0.128 0.378 0.079 0.801-0.095 1.155-0.129 0.223-0.311 0.395-0.535 0.521-0.197 0.11-0.393 0.155-0.616 0.184-0.339 0.045-2.304 0.075-2.551-0.009-0.033-0.011-0.066-0.024-0.082-0.057-0.036-0.079-0.041-0.2-0.045-0.293l-0.001-0.026c-0.024-0.528-0.016-1.064-0.008-1.597 0.003-0.237 0.007-0.474 0.007-0.709 0.001-0.227-0.002-0.455-0.005-0.684-0.006-0.446-0.011-0.894 0.009-1.335 0.004-0.096 0.013-0.202 0.047-0.292 0.026-0.069 0.060-0.092 0.125-0.123 0.095-0.001 0.215-0.003 0.351-0.005zM10.508 15.788c-0.275-0.066-1.143-0.020-1.474-0.020l0 1.508c0.388 0.001 1.233 0.050 1.565-0.035 0.123-0.031 0.22-0.081 0.314-0.166 0.15-0.176 0.227-0.354 0.205-0.591-0.020-0.21-0.11-0.389-0.273-0.524-0.098-0.082-0.213-0.14-0.337-0.171zM9.308 13.685c-0.105 0.003-0.199 0.006-0.274 0.006l0.001 1.342c0.088 0 0.195 0.003 0.312 0.006 0.387 0.010 0.881 0.023 1.139-0.043 0.12-0.031 0.22-0.079 0.316-0.157 0.126-0.153 0.195-0.327 0.178-0.527-0.014-0.176-0.098-0.349-0.239-0.458-0.265-0.206-0.96-0.183-1.432-0.168z"></path>
<path d="M16.407 15.922c-0.145-1.089-1.146-1.854-2.235-1.709s-1.853 1.145-1.708 2.234c0.145 1.088 1.144 1.853 2.233 1.709s1.855-1.145 1.71-2.234zM14.299 15.056c0.221-0.011 0.416-0.007 0.612 0.112 0.22 0.134 0.357 0.363 0.416 0.609 0.084 0.349 0.065 0.829-0.132 1.14-0.141 0.222-0.337 0.321-0.585 0.375-0.238 0.024-0.474 0.002-0.678-0.135-0.215-0.144-0.34-0.38-0.389-0.629-0.069-0.354-0.047-0.815 0.167-1.118 0.147-0.208 0.343-0.311 0.588-0.354z"></path>
<path d="M20.674 15.91c-0.15-1.089-1.157-1.849-2.245-1.695-1.084 0.153-1.84 1.154-1.69 2.239s1.149 1.843 2.234 1.697c1.089-0.147 1.852-1.151 1.701-2.24zM18.551 15.056c0.215-0.018 0.423-0.011 0.616 0.097 0.23 0.129 0.37 0.354 0.435 0.603 0.094 0.358 0.075 0.82-0.121 1.143-0.139 0.229-0.337 0.335-0.59 0.392-0.237 0.031-0.471 0.004-0.675-0.13-0.218-0.143-0.344-0.376-0.397-0.626-0.075-0.353-0.050-0.808 0.156-1.116 0.14-0.208 0.334-0.315 0.575-0.364z"></path>
<path d="M21.468 12.76c0.015-0.001 0.030-0.002 0.045-0.003 0.148-0.005 0.477-0.034 0.577 0.101 0.043 0.058 0.049 0.178 0.054 0.249 0.022 0.3 0.004 0.614 0.004 0.915l0 1.774c0.21-0.249 0.451-0.478 0.673-0.718 0.219-0.237 0.429-0.51 0.671-0.721 0.058-0.050 0.101-0.077 0.176-0.097 0.155-0.042 0.715-0.073 0.833 0.011 0.030 0.021 0.056 0.063 0.053 0.101-0.011 0.169-1.126 1.269-1.321 1.462 0.358 0.52 0.719 1.038 1.083 1.554 0.091 0.132 0.348 0.414 0.315 0.577-0.007 0.035-0.035 0.067-0.067 0.084-0.167 0.092-0.81 0.031-1.011-0.034-0.143-0.144-0.26-0.353-0.376-0.52l-0.698-1.018-0.334 0.29c-0.001 0.267 0.079 1.052-0.093 1.232-0.077 0.080-0.177 0.086-0.282 0.087-0.16 0.002-0.469 0.028-0.586-0.086-0.030-0.308-0.020-0.619-0.020-0.927l-0.001-1.318 0-1.806c0-0.321-0.012-0.647 0.003-0.967 0.002-0.043 0.003-0.080 0.029-0.117 0.061-0.089 0.173-0.090 0.27-0.104z"></path>
<path d="M28.256 14.226c0.211-0.005 0.63-0.051 0.82 0.027 0.071 0.029 0.103 0.102 0.135 0.168 0.135 0.281 0.223 0.605 0.332 0.899 0.189 0.511 0.392 1.017 0.584 1.526 0.111-0.288 0.88-2.432 1.007-2.539 0.062-0.052 0.179-0.064 0.256-0.066 0.162-0.005 0.465-0.041 0.588 0.073 0.031 0.073 0.027 0.113 0.009 0.191-0.063 0.273-0.197 0.558-0.295 0.821l-0.631 1.696-0.427 1.156c-0.086 0.233-0.161 0.483-0.272 0.705-0.062 0.124-0.137 0.239-0.232 0.341-0.227 0.243-0.523 0.347-0.85 0.359-0.14 0.005-0.38 0.031-0.488-0.069-0.069-0.139-0.075-0.465-0.030-0.615 0.043-0.146 0.364-0.119 0.493-0.191 0.208-0.117 0.265-0.347 0.318-0.562-0.167-0.505-1.425-3.594-1.413-3.769 0.005-0.076 0.041-0.108 0.096-0.152z"></path>
<path d="M26.189 14.211c0.106-0.016 0.221-0.012 0.329-0.011 0.426 0.004 0.903 0.094 1.211 0.415 0.141 0.147 0.244 0.37 0.229 0.578-0.003 0.035-0.012 0.086-0.043 0.108-0.153 0.108-0.571 0.087-0.753 0.063-0.162-0.022-0.149-0.13-0.249-0.248-0.11-0.13-0.27-0.194-0.437-0.206-0.186-0.014-0.421 0.047-0.559 0.177-0.061 0.058-0.125 0.206-0.116 0.289 0.043 0.362 1.063 0.409 1.357 0.483 0.249 0.063 0.506 0.156 0.704 0.324 0.189 0.159 0.274 0.376 0.293 0.618 0.024 0.299-0.064 0.585-0.262 0.811-0.344 0.393-0.846 0.508-1.346 0.545-0.384 0.013-0.797-0.040-1.142-0.217-0.25-0.129-0.477-0.33-0.56-0.607-0.034-0.113-0.057-0.246 0.003-0.353 0.174-0.137 0.651-0.083 0.863-0.076 0.071 0.109 0.115 0.236 0.213 0.326 0.164 0.152 0.407 0.197 0.624 0.187 0.178-0.009 0.367-0.059 0.486-0.2 0.066-0.078 0.104-0.178 0.094-0.28-0.039-0.411-1.051-0.409-1.364-0.482-0.226-0.052-0.457-0.144-0.64-0.289-0.193-0.153-0.316-0.359-0.34-0.606-0.026-0.301 0.067-0.601 0.259-0.834 0.29-0.351 0.707-0.471 1.144-0.513z"></path>
</symbol>
<symbol id="icon-map" viewBox="0 0 32 32">
<path d="M16 18.667c2.941 0 5.333-2.392 5.333-5.333s-2.392-5.333-5.333-5.333c-2.941 0-5.333 2.392-5.333 5.333s2.392 5.333 5.333 5.333zM16 10.667c1.471 0 2.667 1.196 2.667 2.667s-1.196 2.667-2.667 2.667c-1.471 0-2.667-1.196-2.667-2.667s1.196-2.667 2.667-2.667z"></path>
<path d="M15.227 29.085c0.226 0.161 0.496 0.248 0.773 0.248s0.548-0.087 0.773-0.248c0.405-0.287 9.932-7.165 9.893-15.752 0-5.881-4.785-10.667-10.667-10.667s-10.667 4.785-10.667 10.66c-0.039 8.593 9.488 15.472 9.893 15.759zM16 5.333c4.412 0 8 3.588 8 8.007 0.028 5.917-5.851 11.231-8 12.973-2.148-1.744-8.028-7.059-8-12.98 0-4.412 3.588-8 8-8z"></path>
</symbol>
<symbol id="icon-phone" viewBox="0 0 32 32">
<path d="M23.61 16.391c-0.124-0.124-0.271-0.222-0.432-0.289s-0.335-0.102-0.51-0.102c-0.175 0-0.348 0.035-0.51 0.102s-0.309 0.165-0.432 0.289l-2.125 2.125c-0.985-0.293-2.824-0.96-3.989-2.125s-1.832-3.004-2.125-3.989l2.125-2.125c0.124-0.124 0.222-0.271 0.289-0.432s0.102-0.335 0.102-0.51c0-0.175-0.035-0.348-0.102-0.51s-0.165-0.309-0.289-0.432l-5.333-5.333c-0.124-0.124-0.271-0.222-0.432-0.289s-0.335-0.102-0.51-0.102c-0.175 0-0.348 0.035-0.51 0.102s-0.309 0.165-0.432 0.289l-3.616 3.616c-0.507 0.507-0.792 1.203-0.781 1.913 0.031 1.899 0.533 8.493 5.731 13.691s11.792 5.699 13.692 5.731h0.037c0.704 0 1.369-0.277 1.873-0.781l3.616-3.616c0.124-0.124 0.222-0.271 0.289-0.432s0.102-0.335 0.102-0.51c0-0.175-0.035-0.349-0.102-0.51s-0.165-0.309-0.289-0.432l-5.333-5.335zM23.44 25.34c-1.664-0.028-7.357-0.475-11.831-4.949-4.488-4.488-4.923-10.201-4.949-11.832l2.673-2.673 3.448 3.448-1.724 1.724c-0.157 0.157-0.272 0.35-0.335 0.562s-0.073 0.437-0.027 0.654c0.032 0.153 0.815 3.789 3.028 6.003s5.849 2.996 6.003 3.028c0.217 0.047 0.442 0.038 0.654-0.025s0.406-0.179 0.562-0.336l1.725-1.724 3.448 3.448-2.675 2.673z"></path>
</symbol>
<symbol id="icon-email" viewBox="0 0 32 32">
<path d="M26.667 5.333h-21.333c-1.471 0-2.667 1.196-2.667 2.667v16c0 1.471 1.196 2.667 2.667 2.667h21.333c1.471 0 2.667-1.196 2.667-2.667v-16c0-1.471-1.196-2.667-2.667-2.667zM26.667 8v0.681l-10.667 8.297-10.667-8.296v-0.683h21.333zM5.333 24v-11.941l9.848 7.66c0.233 0.183 0.522 0.283 0.819 0.283s0.585-0.1 0.819-0.283l9.848-7.66 0.003 11.941h-21.336z"></path>
</symbol>
<symbol id="icon-menu-alt-right" viewBox="0 0 32 32">
<path d="M5.333 8h21.333v2.667h-21.333v-2.667zM10.667 14.667h16v2.667h-16v-2.667zM17.333 21.333h9.333v2.667h-9.333v-2.667z"></path>
</symbol>
<symbol id="icon-star" viewBox="0 0 32 32">
<path d="M8.688 19.097l-1.987 8.603c-0.062 0.261-0.043 0.533 0.053 0.783s0.265 0.465 0.485 0.617c0.22 0.152 0.481 0.235 0.749 0.236s0.53-0.078 0.752-0.227l7.26-4.84 7.26 4.84c0.227 0.151 0.495 0.228 0.768 0.222s0.537-0.095 0.757-0.256c0.22-0.161 0.386-0.385 0.475-0.642s0.097-0.536 0.023-0.799l-2.439-8.533 6.048-5.443c0.194-0.174 0.332-0.402 0.398-0.654s0.056-0.518-0.027-0.765-0.238-0.464-0.444-0.624c-0.206-0.16-0.454-0.256-0.714-0.277l-7.601-0.605-3.289-7.281c-0.105-0.234-0.275-0.434-0.491-0.573s-0.467-0.214-0.724-0.214c-0.257 0-0.508 0.074-0.724 0.214s-0.386 0.339-0.491 0.573l-3.289 7.281-7.601 0.604c-0.255 0.020-0.5 0.114-0.703 0.269s-0.358 0.366-0.445 0.607c-0.087 0.241-0.103 0.502-0.046 0.752s0.185 0.478 0.369 0.656l5.619 5.476zM12.492 13.329c0.238-0.019 0.467-0.101 0.662-0.239s0.35-0.325 0.448-0.543l2.399-5.308 2.399 5.308c0.098 0.218 0.252 0.405 0.448 0.543s0.424 0.22 0.662 0.239l5.296 0.42-4.361 3.925c-0.379 0.341-0.529 0.867-0.391 1.357l1.671 5.847-4.981-3.321c-0.219-0.147-0.476-0.225-0.739-0.225s-0.521 0.078-0.739 0.225l-5.205 3.471 1.4-6.061c0.051-0.223 0.044-0.455-0.020-0.675s-0.184-0.419-0.348-0.579l-4.051-3.949 5.453-0.435z"></path>
</symbol>
<symbol id="icon-x" viewBox="0 0 32 32">
<path d="M21.589 8.459l-5.657 5.656-5.656-5.656-1.885 1.885 5.656 5.656-5.656 5.656 1.885 1.885 5.656-5.656 5.657 5.656 1.885-1.885-5.656-5.656 5.656-5.656-1.885-1.885z"></path>
</symbol>
<symbol id="icon-check" viewBox="0 0 32 32">
<path d="M13.333 20.781l-4.391-4.391-1.885 1.885 6.276 6.276 12.943-12.943-1.885-1.885-11.057 11.057z"></path>
</symbol>
<symbol id="icon-plus" viewBox="0 0 32 32">
<path d="M25.333 14.667h-8v-8h-2.667v8h-8v2.667h8v8h2.667v-8h8v-2.667z"></path>
</symbol>
<symbol id="icon-minus" viewBox="0 0 32 32">
<path d="M6.667 14.667h18.667v2.667h-18.667v-2.667z"></path>
</symbol>
<symbol id="icon-right-arrow" viewBox="0 0 32 32">
<path d="M15.057 23.057l1.885 1.885 8.943-8.943-8.943-8.943-1.885 1.885 5.724 5.724h-12.781v2.667h12.781l-5.724 5.724z"></path>
</symbol>
<symbol id="icon-left-arrow" viewBox="0 0 32 32">
<path d="M16.943 23.057l-5.724-5.724h12.781v-2.667h-12.781l5.724-5.724-1.885-1.885-8.943 8.943 8.943 8.943 1.885-1.885z"></path>
</symbol>
<symbol id="icon-down-arrow" viewBox="0 0 32 32">
<path d="M24.943 16.943l-1.885-1.885-5.724 5.724v-12.781h-2.667v12.781l-5.724-5.724-1.885 1.885 8.943 8.943 8.943-8.943z"></path>
</symbol>
<symbol id="icon-up-arrow" viewBox="0 0 32 32">
<path d="M14.667 11.219v12.781h2.667v-12.781l5.724 5.724 1.885-1.885-8.943-8.943-8.943 8.943 1.885 1.885 5.724-5.724z"></path>
</symbol>
<symbol id="icon-chevron-right" viewBox="0 0 32 32">
<path d="M12.943 22.599l7.609-7.609-7.609-7.609-1.885 1.885 5.724 5.724-5.724 5.724 1.885 1.885z"></path>
</symbol>
<symbol id="icon-chevron-left" viewBox="0 0 32 32">
<path d="M17.724 8.391l-7.609 7.609 7.609 7.609 1.885-1.885-5.724-5.724 5.724-5.724-1.885-1.885z"></path>
</symbol>
<symbol id="icon-chevron-down" viewBox="0 0 32 32">
<path d="M21.724 11.057l-5.724 5.724-5.724-5.724-1.885 1.885 7.609 7.609 7.609-7.609-1.885-1.885z"></path>
</symbol>
<symbol id="icon-chevron-up" viewBox="0 0 32 32">
<path d="M8.391 19.057l1.885 1.885 5.724-5.724 5.724 5.724 1.885-1.885-7.609-7.609-7.609 7.609z"></path>
</symbol>
</defs>
</svg>
